<svg xmlns="http://www.w3.org/2000/svg" viewBox="0 0 212.975 212.975" width="512" height="512"><g fill="#399"><path d="M38.617 32.966h56.742v12H38.617zm133.23 13.503c1.971 0 3.9-.8 5.301-2.199a7.55 7.55 0 0 0 2.199-5.301c0-1.979-.8-3.91-2.199-5.31a7.579 7.579 0 0 0-5.301-2.19 7.59 7.59 0 0 0-5.31 2.19 7.582 7.582 0 0 0-2.19 5.31c0 1.971.801 3.9 2.19 5.301a7.556 7.556 0 0 0 5.31 2.199zm-27 0c1.971 0 3.9-.8 5.301-2.199a7.55 7.55 0 0 0 2.199-5.301c0-1.979-.8-3.91-2.199-5.31a7.579 7.579 0 0 0-5.301-2.19 7.592 7.592 0 0 0-5.31 2.19 7.582 7.582 0 0 0-2.19 5.31c0 1.971.801 3.9 2.19 5.301a7.556 7.556 0 0 0 5.31 2.199zm-27.01 0c1.98 0 3.91-.8 5.311-2.199a7.55 7.55 0 0 0 2.199-5.301c0-1.97-.8-3.91-2.199-5.31a7.585 7.585 0 0 0-5.311-2.19c-1.97 0-3.899.801-5.3 2.19a7.582 7.582 0 0 0-2.19 5.31c0 1.971.801 3.9 2.19 5.301a7.55 7.55 0 0 0 5.3 2.199z"/><path d="M0 8.181V166.55h49.482v38.243l71.763-38.243h91.73V8.181H0zm197.975 15v31.57H15v-31.57h182.975zM117.497 151.55l-53.015 28.253V151.55H15V69.751h182.975v81.799h-80.478z"/><path d="M42.65 90.394h127.674v12H42.65zm0 26.512h127.674v12H42.65z"/></g></svg>