<svg xmlns="http://www.w3.org/2000/svg" width="512" height="512" viewBox="0 0 44.934 44.934"><path d="M39.917 6.267H5.023v23.01h34.894V6.267zm-3.538 19.472H8.56V9.803h27.819v15.936zm-9.11 11.416H0v1.512h44.934v-1.512zm12.641-6.81H5.023L.27 36.695h44.395l-4.755-6.35zm-5.016 1.166h1.919v.958h-1.919v-.958zm3.104 1.529v.958h-1.9v-.958h1.9zm-2.377 0v.958h-1.918v-.958h1.918zm-3.351-1.529h1.918v.958H32.27v-.958zm.728 1.529v.958H31.08v-.958h1.918zm-3.41-1.529h1.918v.958h-1.918v-.958zm.728 1.529v.958h-1.918v-.958h1.918zm-3.474-1.529h1.918v.958h-1.918v-.958zm-2.682 0h1.918v.958H24.16v-.958zm.727 1.529v.958h-1.918v-.958h1.918zm-3.351-1.529h1.917v.958h-1.917v-.958zm.727 1.529v.958h-1.918v-.958h1.918zm-3.409-1.529h1.918v.958h-1.918v-.958zm.728 1.529v.958h-1.918v-.958h1.918zm-3.468-1.529h1.918v.958h-1.918v-.958zm.728 1.529v.958h-1.918v-.958h1.918zm-3.409-1.529h1.918v.958h-1.918v-.958zm.727 1.529v.958h-1.918v-.958h1.918zm-3.351-1.529h1.918v.958h-1.918v-.958zm.728 1.529v.958H9.619v-.958h1.918zm-3.41-1.529h1.918v.958H8.127v-.958zM6.936 33.04h1.919v.958H6.936v-.958zm.373 2.406H5.391v-.959h1.918v.959zm2.451 0H7.842v-.959H9.76v.959zm2.682 0h-1.918v-.959h1.918v.959zm2.624 0h-1.919v-.959h1.918l.001.959zm2.681 0h-1.918v-.959h1.918v.959zm7.878 0h-7.056v-.959h7.056v.959zm.025-2.406h1.918v.958H25.65v-.958zm2.824 2.406h-1.918v-.959h1.918v.959zm2.747 0h-1.918v-.959h1.918v.959zm2.681 0h-1.918v-.959h1.918v.959zm2.625 0h-1.918v-.959h1.918v.959zm2.422 0h-1.918v-.959h1.918v.959z" fill="#399"/></svg>