<?xml version="1.0" encoding="UTF-8" standalone="no"?>
<!-- Generator: Adobe Illustrator 18.0.0, SVG Export Plug-In . SVG Version: 6.00 Build 0)  -->

<svg
   xmlns:dc="http://purl.org/dc/elements/1.1/"
   xmlns:cc="http://creativecommons.org/ns#"
   xmlns:rdf="http://www.w3.org/1999/02/22-rdf-syntax-ns#"
   xmlns:svg="http://www.w3.org/2000/svg"
   xmlns="http://www.w3.org/2000/svg"
   xmlns:sodipodi="http://sodipodi.sourceforge.net/DTD/sodipodi-0.dtd"
   xmlns:inkscape="http://www.inkscape.org/namespaces/inkscape"
   version="1.1"
   id="Capa_1"
   x="0px"
   y="0px"
   viewBox="0 0 212.975 212.975"
   style="enable-background:new 0 0 212.975 212.975;"
   xml:space="preserve"
   width="512px"
   height="512px"
   inkscape:version="0.91 r13725"
   sodipodi:docname="blog.svg"><metadata
   id="metadata3387"><rdf:RDF><cc:Work
       rdf:about=""><dc:format>image/svg+xml</dc:format><dc:type
         rdf:resource="http://purl.org/dc/dcmitype/StillImage" /></cc:Work></rdf:RDF></metadata><defs
   id="defs3385" /><sodipodi:namedview
   pagecolor="#ffffff"
   bordercolor="#666666"
   borderopacity="1"
   objecttolerance="10"
   gridtolerance="10"
   guidetolerance="10"
   inkscape:pageopacity="0"
   inkscape:pageshadow="2"
   inkscape:window-width="1366"
   inkscape:window-height="705"
   id="namedview3383"
   showgrid="false"
   inkscape:zoom="1.0351562"
   inkscape:cx="256"
   inkscape:cy="325.91107"
   inkscape:window-x="-8"
   inkscape:window-y="-8"
   inkscape:window-maximized="1"
   inkscape:current-layer="Capa_1"
   showguides="true" />
<g
   id="g3337">
	<rect
   x="38.617"
   y="32.966"
   width="56.742"
   height="12"
   id="rect3339"
   fill="#339999" />
	<path
   d="M171.847,46.469c1.971,0,3.9-0.8,5.301-2.199c1.399-1.4,2.199-3.33,2.199-5.301c0-1.979-0.8-3.91-2.199-5.31   c-1.4-1.39-3.33-2.19-5.301-2.19c-1.98,0-3.909,0.801-5.31,2.19c-1.39,1.399-2.19,3.33-2.19,5.31c0,1.971,0.801,3.9,2.19,5.301   C167.938,45.669,169.867,46.469,171.847,46.469z"
   id="path3341"
   fill="#339999" />
	<path
   d="M144.847,46.469c1.971,0,3.9-0.8,5.301-2.199c1.399-1.4,2.199-3.33,2.199-5.301c0-1.979-0.8-3.91-2.199-5.31   c-1.4-1.39-3.33-2.19-5.301-2.19c-1.979,0-3.909,0.801-5.31,2.19c-1.39,1.399-2.19,3.33-2.19,5.31c0,1.971,0.801,3.9,2.19,5.301   C140.938,45.669,142.867,46.469,144.847,46.469z"
   id="path3343"
   fill="#339999" />
	<path
   d="M117.837,46.469c1.98,0,3.91-0.8,5.311-2.199c1.399-1.4,2.199-3.33,2.199-5.301c0-1.97-0.8-3.91-2.199-5.31   c-1.4-1.39-3.33-2.19-5.311-2.19c-1.97,0-3.899,0.801-5.3,2.19c-1.39,1.399-2.19,3.33-2.19,5.31c0,1.971,0.801,3.9,2.19,5.301   C113.938,45.669,115.867,46.469,117.837,46.469z"
   id="path3345"
   fill="#339999" />
	<path
   d="M0,8.181V166.55h49.482v38.243l71.763-38.243h91.73V8.181H0z M197.975,23.181v31.57H15v-31.57H197.975z M117.497,151.55   l-53.015,28.253V151.55H15V69.751h182.975v81.799H117.497z"
   id="path3347"
   fill="#339999" />
	<rect
   x="42.65"
   y="90.394"
   width="127.674"
   height="12"
   id="rect3349"
   fill="#339999" />
	<rect
   x="42.65"
   y="116.906"
   width="127.674"
   height="12"
   id="rect3351"
   fill="#339999" />
</g>
<g
   id="g3353">
</g>
<g
   id="g3355">
</g>
<g
   id="g3357">
</g>
<g
   id="g3359">
</g>
<g
   id="g3361">
</g>
<g
   id="g3363">
</g>
<g
   id="g3365">
</g>
<g
   id="g3367">
</g>
<g
   id="g3369">
</g>
<g
   id="g3371">
</g>
<g
   id="g3373">
</g>
<g
   id="g3375">
</g>
<g
   id="g3377">
</g>
<g
   id="g3379">
</g>
<g
   id="g3381">
</g>
</svg>